<svg width="22" height="17" viewBox="0 0 22 17" fill="none" xmlns="http://www.w3.org/2000/svg">
<path d="M11.9658 0.00013666C11.8 0.00593422 11.6417 0.0640989 11.5187 0.164454L5.54722 4.64069C5.44973 4.72798 5.33157 4.79422 5.20161 4.83446C5.07165 4.87469 4.93327 4.88787 4.79686 4.873H0.949174C0.824296 4.87225 0.700496 4.89387 0.584963 4.9366C0.469429 4.97933 0.364463 5.04232 0.276159 5.12192C0.187855 5.20152 0.117973 5.29614 0.0705695 5.40028C0.023166 5.50443 -0.000814235 5.61602 2.10956e-05 5.72859V11.2715C-0.000605424 11.3839 0.023529 11.4954 0.071026 11.5993C0.118523 11.7033 0.188438 11.7978 0.276721 11.8772C0.365004 11.9567 0.469899 12.0195 0.585329 12.0622C0.700759 12.1048 0.824429 12.1264 0.949174 12.1256H4.79293C4.92934 12.1108 5.06772 12.124 5.19768 12.1642C5.32764 12.2044 5.4458 12.2707 5.54329 12.358L11.5148 16.8342C11.9241 17.1409 12.3641 16.9928 12.3641 16.6295V0.369851C12.3672 0.321478 12.3591 0.273057 12.3403 0.227657C12.3216 0.182257 12.2925 0.140868 12.2551 0.106111C12.2176 0.0713539 12.1726 0.0439874 12.1228 0.0257452C12.073 0.00750292 12.0195 -0.00121738 11.9658 0.00013666ZM19.6431 1.62915L18.2359 2.89907C19.424 4.57448 20.0554 6.52144 20.0554 8.50995C20.0554 10.4985 19.424 12.4454 18.2359 14.1208L19.6384 15.3787C21.176 13.3542 21.9992 10.9581 22 8.50458C22.0008 6.05105 21.1793 3.65453 19.6431 1.62915ZM16.2385 4.69098L14.8541 5.94957C15.4688 6.68913 15.801 7.58833 15.801 8.51243C15.801 9.43652 15.4688 10.3357 14.8541 11.0753L16.2338 12.319C17.2045 11.2409 17.735 9.89506 17.7364 8.5066C17.7378 7.11814 17.2102 5.77136 16.2417 4.69169L16.2385 4.69098Z" fill="#00519D"/>
</svg>
