<svg width="52" height="52" viewBox="0 0 52 52" fill="none" xmlns="http://www.w3.org/2000/svg">
<circle cx="26" cy="26" r="26" fill="#3CB4E5"/>
<path d="M27 35H30C30.2652 35 30.5196 35.1054 30.7071 35.2929C30.8946 35.4804 31 35.7348 31 36C31 36.2652 30.8946 36.5196 30.7071 36.7071C30.5196 36.8946 30.2652 37 30 37H22C21.7348 37 21.4804 36.8946 21.2929 36.7071C21.1054 36.5196 21 36.2652 21 36C21 35.7348 21.1054 35.4804 21.2929 35.2929C21.4804 35.1054 21.7348 35 22 35H25V28.25L18.8 23.6C18.5516 23.4137 18.35 23.1721 18.2111 22.8944C18.0723 22.6167 18 22.3105 18 22V21C18 20.4696 18.2107 19.9609 18.5858 19.5858C18.9609 19.2107 19.4696 19 20 19H32C32.5304 19 33.0391 19.2107 33.4142 19.5858C33.7893 19.9609 34 20.4696 34 21V22C34 22.3105 33.9277 22.6167 33.7889 22.8944C33.65 23.1721 33.4484 23.4137 33.2 23.6L27 28.25V35ZM20 21V22L26 26L32 22V21H20Z" fill="white"/>
</svg>
