<svg width="19" height="23" viewBox="0 0 19 23" fill="none" xmlns="http://www.w3.org/2000/svg">
<path fill-rule="evenodd" clip-rule="evenodd" d="M5 16H14C14.2984 16 14.5845 16.1185 14.7955 16.3295C15.0065 16.5405 15.125 16.8266 15.125 17.125C15.125 17.4234 15.0065 17.7095 14.7955 17.9205C14.5845 18.1315 14.2984 18.25 14 18.25H3.875C3.57663 18.25 3.29048 18.1315 3.07951 17.9205C2.86853 17.7095 2.75 17.4234 2.75 17.125V2.5H1.625C1.32663 2.5 1.04048 2.38147 0.829505 2.1705C0.618527 1.95952 0.5 1.67337 0.5 1.375C0.5 1.07663 0.618527 0.790483 0.829505 0.579505C1.04048 0.368526 1.32663 0.25 1.625 0.25H3.875C4.17337 0.25 4.45952 0.368526 4.67049 0.579505C4.88147 0.790483 5 1.07663 5 1.375V11.5H14.8719L16.25 5.875V3.62612C17.5381 3.62612 18.5 4.63187 18.5 5.875C18.5 6.03925 18.4809 6.20238 18.4438 6.36325L17.1489 11.9883C16.9126 13.0176 15.9654 13.75 14.8719 13.75H5.08212L5 13.7489V16ZM4.4375 22.75C3.98995 22.75 3.56072 22.5722 3.24426 22.2557C2.92779 21.9393 2.75 21.5101 2.75 21.0625C2.75 20.6149 2.92779 20.1857 3.24426 19.8693C3.56072 19.5528 3.98995 19.375 4.4375 19.375C4.88505 19.375 5.31428 19.5528 5.63074 19.8693C5.94721 20.1857 6.125 20.6149 6.125 21.0625C6.125 21.5101 5.94721 21.9393 5.63074 22.2557C5.31428 22.5722 4.88505 22.75 4.4375 22.75ZM14.5625 22.75C14.1149 22.75 13.6857 22.5722 13.3693 22.2557C13.0528 21.9393 12.875 21.5101 12.875 21.0625C12.875 20.6149 13.0528 20.1857 13.3693 19.8693C13.6857 19.5528 14.1149 19.375 14.5625 19.375C15.0101 19.375 15.4393 19.5528 15.7557 19.8693C16.0722 20.1857 16.25 20.6149 16.25 21.0625C16.25 21.5101 16.0722 21.9393 15.7557 22.2557C15.4393 22.5722 15.0101 22.75 14.5625 22.75ZM11.75 3.625H12.875C13.1734 3.625 13.4595 3.74353 13.6705 3.95451C13.8815 4.16548 14 4.45163 14 4.75C14 5.04837 13.8815 5.33452 13.6705 5.54549C13.4595 5.75647 13.1734 5.875 12.875 5.875H11.75V7C11.75 7.29837 11.6315 7.58452 11.4205 7.79549C11.2095 8.00647 10.9234 8.125 10.625 8.125C10.3266 8.125 10.0405 8.00647 9.82951 7.79549C9.61853 7.58452 9.5 7.29837 9.5 7V5.875H8.375C8.07663 5.875 7.79048 5.75647 7.57951 5.54549C7.36853 5.33452 7.25 5.04837 7.25 4.75C7.25 4.45163 7.36853 4.16548 7.57951 3.95451C7.79048 3.74353 8.07663 3.625 8.375 3.625H9.5V2.5C9.5 2.20163 9.61853 1.91548 9.82951 1.7045C10.0405 1.49353 10.3266 1.375 10.625 1.375C10.9234 1.375 11.2095 1.49353 11.4205 1.7045C11.6315 1.91548 11.75 2.20163 11.75 2.5V3.625Z" fill="#364F66"/>
</svg>
