<svg width="52" height="52" viewBox="0 0 52 52" fill="none" xmlns="http://www.w3.org/2000/svg">
<circle cx="26" cy="26" r="26" fill="#3CB4E5"/>
<path fill-rule="evenodd" clip-rule="evenodd" d="M26.8622 27.1509L19.5588 34.4173C19.0985 34.8753 18.4751 35.1317 17.8258 35.13C17.1764 35.1284 16.5544 34.8688 16.0964 34.4085C15.6384 33.9482 15.382 33.3248 15.3837 32.6755C15.3853 32.0262 15.6449 31.4041 16.1052 30.9461L23.4085 23.6797C22.8835 22.3309 22.8533 20.8396 23.3235 19.4707C23.7936 18.1017 24.7335 16.9436 25.9765 16.2019C27.2194 15.4602 28.685 15.1829 30.113 15.4192C31.541 15.6555 32.8391 16.3901 33.7769 17.4927L28.2543 18.8585L29.9723 24.0565L35.0878 22.7918C34.895 23.6554 34.5173 24.4669 33.9807 25.1704C33.4441 25.8739 32.7614 26.4528 31.9796 26.8671C31.1978 27.2814 30.3355 27.5213 29.452 27.5703C28.5686 27.6193 27.685 27.4762 26.8622 27.1509Z" fill="white"/>
</svg>
