<svg width="52" height="52" viewBox="0 0 52 52" fill="none" xmlns="http://www.w3.org/2000/svg">
<circle cx="26" cy="26" r="26" fill="#3CB4E5"/>
<path fill-rule="evenodd" clip-rule="evenodd" d="M15 21.2C15 20.6165 15.2318 20.0569 15.6444 19.6444C16.0569 19.2318 16.6165 19 17.2 19H34.8C35.3835 19 35.9431 19.2318 36.3556 19.6444C36.7682 20.0569 37 20.6165 37 21.2V30C37 30.5835 36.7682 31.1431 36.3556 31.5556C35.9431 31.9682 35.3835 32.2 34.8 32.2H17.2C16.6165 32.2 16.0569 31.9682 15.6444 31.5556C15.2318 31.1431 15 30.5835 15 30V21.2ZM31.5 27.8V30H34.8V27.8H31.5ZM28.2 27.8V30H30.4V27.8H28.2ZM20.5 27.8V30H27.1V27.8H20.5ZM17.2 27.8V30H19.4V27.8H17.2ZM32.6 24.5V26.7H34.8V24.5H32.6ZM29.3 24.5V26.7H31.5V24.5H29.3ZM26 24.5V26.7H28.2V24.5H26ZM22.7 24.5V26.7H24.9V24.5H22.7ZM17.2 24.5V26.7H21.6V24.5H17.2ZM30.4 21.2V23.4H34.8V21.2H30.4ZM27.1 21.2V23.4H29.3V21.2H27.1ZM23.8 21.2V23.4H26V21.2H23.8ZM20.5 21.2V23.4H22.7V21.2H20.5ZM17.2 21.2V23.4H19.4V21.2H17.2Z" fill="white"/>
</svg>
