<svg width="52" height="52" viewBox="0 0 52 52" fill="none" xmlns="http://www.w3.org/2000/svg">
<circle cx="26" cy="26" r="26" fill="#3CB4E5"/>
<path fill-rule="evenodd" clip-rule="evenodd" d="M33 25.9955V33.9955C33 34.526 32.7893 35.0347 32.4142 35.4097C32.0391 35.7848 31.5304 35.9955 31 35.9955H21C20.4696 35.9955 19.9609 35.7848 19.5858 35.4097C19.2107 35.0347 19 34.526 19 33.9955V25.9955C18.4696 25.9955 17.9609 25.7848 17.5858 25.4097C17.2107 25.0347 17 24.526 17 23.9955V21.9955C17 21.4651 17.2107 20.9564 17.5858 20.5813C17.9609 20.2062 18.4696 19.9955 19 19.9955H20.17C20.0251 19.5838 19.9719 19.1453 20.014 18.7108C20.056 18.2764 20.1924 17.8563 20.4136 17.48C20.6348 17.1036 20.9354 16.7801 21.2945 16.5319C21.6537 16.2838 22.0626 16.117 22.4928 16.0432C22.9231 15.9694 23.3642 15.9904 23.7855 16.1047C24.2068 16.219 24.5981 16.4238 24.932 16.7049C25.266 16.986 25.5345 17.3366 25.719 17.7323C25.9034 18.1279 25.9993 18.559 26 18.9955C26.0007 18.559 26.0966 18.1279 26.281 17.7323C26.4655 17.3366 26.734 16.986 27.068 16.7049C27.4019 16.4238 27.7932 16.219 28.2145 16.1047C28.6358 15.9904 29.0769 15.9694 29.5072 16.0432C29.9374 16.117 30.3463 16.2838 30.7055 16.5319C31.0646 16.7801 31.3652 17.1036 31.5864 17.48C31.8076 17.8563 31.944 18.2764 31.986 18.7108C32.0281 19.1453 31.9749 19.5838 31.83 19.9955H33C33.5304 19.9955 34.0391 20.2062 34.4142 20.5813C34.7893 20.9564 35 21.4651 35 21.9955V23.9955C35 24.526 34.7893 25.0347 34.4142 25.4097C34.0391 25.7848 33.5304 25.9955 33 25.9955ZM25 21.9955H19V23.9955H25V21.9955ZM27 21.9955V23.9955H33V21.9955H27ZM21 25.9955V33.9955H31V25.9955H21ZM23 19.9955H24V18.9955C24 18.7977 23.9414 18.6044 23.8315 18.44C23.7216 18.2755 23.5654 18.1473 23.3827 18.0717C23.2 17.996 22.9989 17.9762 22.8049 18.0147C22.6109 18.0533 22.4327 18.1486 22.2929 18.2884C22.153 18.4283 22.0578 18.6065 22.0192 18.8004C21.9806 18.9944 22.0004 19.1955 22.0761 19.3782C22.1518 19.5609 22.28 19.7171 22.4444 19.827C22.6089 19.9369 22.8022 19.9955 23 19.9955ZM29 19.9955C29.1978 19.9955 29.3911 19.9369 29.5556 19.827C29.72 19.7171 29.8482 19.5609 29.9239 19.3782C29.9996 19.1955 30.0194 18.9944 29.9808 18.8004C29.9422 18.6065 29.847 18.4283 29.7071 18.2884C29.5673 18.1486 29.3891 18.0533 29.1951 18.0147C29.0011 17.9762 28.8 17.996 28.6173 18.0717C28.4346 18.1473 28.2784 18.2755 28.1685 18.44C28.0586 18.6044 28 18.7977 28 18.9955V19.9955H29Z" fill="white"/>
</svg>
