<svg width="20" height="19" viewBox="0 0 20 19" fill="none" xmlns="http://www.w3.org/2000/svg">
<path d="M9.66667 9.33333C8.38479 9.33333 7.15541 8.84167 6.24898 7.9665C5.34256 7.09133 4.83333 5.90434 4.83333 4.66667C4.83333 3.42899 5.34256 2.242 6.24898 1.36683C7.15541 0.491665 8.38479 0 9.66667 0C10.9485 0 12.1779 0.491665 13.0844 1.36683C13.9908 2.242 14.5 3.42899 14.5 4.66667C14.5 5.90434 13.9908 7.09133 13.0844 7.9665C12.1779 8.84167 10.9485 9.33333 9.66667 9.33333ZM9.66667 12.8333C13.5164 12.8333 16.971 13.4995 19.3333 16.4068V18.6667H0V16.4068C2.36229 13.4983 5.81692 12.8333 9.66667 12.8333Z" fill="#364F66"/>
</svg>
